<?xml version="1.0" encoding="UTF-8"?>
<svg id="Layer_2" data-name="Layer 2" xmlns="http://www.w3.org/2000/svg" viewBox="0 0 243.5 56.23">
  <defs>
    <style>
      .cls-1 {
        fill: #fbfff1;
      }

      .cls-2 {
        fill: #ffa6c8;
      }

      .cls-3 {
        fill: #152128;
      }
    </style>
  </defs>
  <g id="Layer_1-2" data-name="Layer 1">
    <g>
      <path class="cls-3" d="M20.91,15.56v24.6h-5.48l-9.98-15.99v15.99H0V15.56h5.52l9.95,16.06V15.56h5.45ZM37.14,20.1h-1.23l-7.03,20.07h-5.59l8.89-24.6h8.79l8.86,24.6h-5.59l-7.1-20.07ZM29.23,30.33h14.34v4.53h-14.34v-4.53ZM69.43,15.56h5.8l-8.86,24.6h-6.78l-8.86-24.6h5.83l6.43,19.08,6.43-19.08ZM78.12,15.56h5.45v24.6h-5.45V15.56ZM105.61,23.51c-.68-1.24-1.55-2.14-2.6-2.71-1.03-.59-2.19-.88-3.48-.88-1.36,0-2.59.35-3.69,1.05-1.08.68-1.93,1.62-2.57,2.81-.61,1.19-.91,2.55-.91,4.08s.3,2.99.91,4.18c.61,1.17,1.46,2.1,2.57,2.78,1.1.66,2.39.98,3.87.98.91,0,1.76-.15,2.53-.46.77-.33,1.47-.77,2.07-1.34.61-.56,1.12-1.21,1.55-1.93v-1.55h-6.33v-4.29h11.42v6.82c-.56,1.29-1.38,2.5-2.46,3.62-1.08,1.1-2.38,2-3.9,2.71-1.52.68-3.26,1.02-5.2,1.02-1.83,0-3.5-.3-5.03-.91-1.52-.61-2.85-1.48-3.97-2.6-1.12-1.12-2-2.45-2.64-3.97-.61-1.55-.91-3.23-.91-5.06s.3-3.5.91-5.03c.63-1.55,1.5-2.88,2.6-4.01,1.12-1.12,2.45-1.99,3.97-2.6,1.52-.61,3.2-.91,5.03-.91,1.71,0,3.32.27,4.81.81,1.52.54,2.85,1.32,3.97,2.35,1.12,1.01,1.96,2.24,2.5,3.69l-5.03,1.34ZM126.34,20.1h-1.23l-7.03,20.07h-5.59l8.89-24.6h8.79l8.86,24.6h-5.59l-7.1-20.07ZM118.44,30.33h14.34v4.53h-14.34v-4.53ZM140.32,15.56h20.67v4.53h-7.63v20.07h-5.41v-20.07h-7.63v-4.53ZM237.49,23.37c0-1.01-.3-1.8-.91-2.39-.59-.59-1.51-.88-2.78-.88h-5.03v6.57h5.03c.84,0,1.54-.13,2.07-.39.54-.26.94-.63,1.19-1.12.28-.52.42-1.11.42-1.79ZM234.08,15.56c1.99,0,3.64.36,4.96,1.09,1.34.7,2.33,1.65,2.99,2.85.66,1.17.98,2.46.98,3.87,0,.96-.18,1.91-.53,2.85-.33.91-.85,1.76-1.58,2.53-.7.75-1.63,1.35-2.78,1.79-1.12.45-2.47.67-4.04.67h-5.31v8.96h-5.45V15.56h10.75ZM236.93,29.34l6.57,10.82h-6.04l-6.22-10.82h5.69Z"/>
      <path class="cls-1" d="M187.63,41.03c-.36,0-.71-.04-1.05-.12-2.7-.63-3.84-3.46-3.96-3.78-.47-1.25-.53-2.63-.18-4-.68-.06-1.35-.38-1.96-.95-1.18-1.09-1.88-2.8-1.79-4.38.09-1.66.74-2.78,1.82-3.15.08-.03.16-.05.24-.07.12-.03.25-.04.37-.05-.41-1.28-.41-2.73,0-3.84.39-1.04,1.05-1.48,1.53-1.66.1-.04.21-.07.31-.09.16-.03.32-.05.48-.05.58,0,1.17.22,1.75.65-.01-1.73.61-3.56,2.15-4.05.08-.03.16-.05.23-.06.17-.04.34-.06.52-.06,1.41,0,2.68,1.17,3.42,2.43.43-.91,1.06-1.47,1.85-1.64.03,0,.06-.01.09-.02h.01c.13-.02.25-.03.37-.03.61,0,1.2.24,1.75.71.89.76,1.57,2.03,1.82,3.35.18-.09.36-.16.55-.2h.04c.14-.03.28-.05.42-.05.98,0,1.89.65,2.65,1.87.82,1.33,1.02,3.18.51,4.72-.34,1-.94,1.73-1.72,2.07,1.26,1.35,1.89,3.46,1.6,5.46-.1.68-.59,3.02-2.62,4.36-.54.35-1.13.59-1.82.74h-.01c-.65.14-1.31.19-2.08.24-.29.02-.55.03-.82.03-.19,0-.35,0-.5,0-.12,0-.22,0-.32,0-.18,0-.35.01-.58.06-.04,0-.07.02-.11.02-.31.08-.42.13-.69.27-.25.13-.58.3-1.13.51-.65.24-1.26.47-1.91.61-.42.09-.81.14-1.2.14h0Z"/>
      <path class="cls-3" d="M188.07,15.71c1.39,0,2.78,1.32,3.46,2.86.3-.93.86-1.86,1.87-2.08.03,0,.06-.01.09-.02.09-.02.2-.03.31-.03.42,0,.97.13,1.56.64.94.8,1.64,2.25,1.78,3.64.26-.21.55-.35.85-.42h.03c.12-.03.25-.04.37-.04.86,0,1.69.6,2.39,1.73.77,1.25.96,2.99.47,4.44-.32.96-.91,1.65-1.65,1.92-.09.03-.19.06-.28.08-.03,0-.07.01-.1.02,1.44,1.23,2.22,3.44,1.9,5.56-.1.65-.56,2.87-2.48,4.13-.51.33-1.07.56-1.71.7-.64.14-1.3.18-2.06.24-.31.02-.57.03-.79.03-.18,0-.35,0-.49,0-.12,0-.22,0-.32,0-.22,0-.4.01-.65.07-.04,0-.08.02-.11.03-.35.09-.48.16-.76.3-.26.13-.58.3-1.1.49-.64.24-1.24.46-1.87.6-.39.09-.77.13-1.13.13-.34,0-.66-.04-.98-.11-2.55-.6-3.62-3.28-3.74-3.58-.5-1.32-.51-2.78-.06-4.21-.07,0-.13,0-.19,0-.67,0-1.36-.3-1.98-.88-1.11-1.02-1.77-2.64-1.69-4.12.08-1.52.65-2.54,1.61-2.86.07-.02.14-.04.2-.06.14-.03.29-.05.43-.05.11,0,.23,0,.34.03-.53-1.28-.6-2.9-.16-4.06.35-.93.93-1.31,1.34-1.47.09-.03.17-.06.26-.08.14-.03.28-.04.41-.04.8,0,1.53.49,2.11,1.04-.19-1.66.24-3.93,1.88-4.46.06-.02.13-.04.2-.05.15-.03.3-.05.45-.05M188.07,15.07c-.2,0-.39.02-.58.06-.08.02-.16.04-.25.07-1.51.49-2.23,2.12-2.35,3.79-.49-.27-.97-.4-1.46-.4-.18,0-.37.02-.54.06-.11.02-.23.06-.34.1-.54.2-1.28.69-1.72,1.84-.4,1.06-.43,2.43-.12,3.68-.01,0-.02,0-.03,0-.09.02-.18.04-.27.07-1.22.41-1.94,1.63-2.04,3.43-.09,1.67.65,3.48,1.89,4.63.56.52,1.17.85,1.79.98-.27,1.32-.18,2.64.27,3.85.13.34,1.32,3.31,4.18,3.98.36.08.74.13,1.12.13.4,0,.83-.05,1.26-.14.67-.15,1.29-.38,1.95-.63.57-.21.92-.39,1.17-.52.26-.13.35-.18.63-.25.03,0,.06-.01.1-.02.21-.05.35-.06.52-.06.09,0,.19,0,.3,0,.15,0,.32,0,.51,0,.28,0,.55,0,.83-.03h.01c.78-.05,1.46-.1,2.14-.25.72-.16,1.35-.42,1.92-.79,2.15-1.41,2.66-3.86,2.77-4.58.29-1.97-.25-3.99-1.4-5.41.67-.42,1.2-1.13,1.51-2.06.54-1.63.33-3.59-.54-5-1.03-1.67-2.16-2.02-2.92-2.02-.16,0-.32.02-.48.05h-.03s-.01,0-.01,0h-.01c-.09.02-.17.05-.26.08-.31-1.25-.99-2.43-1.84-3.16-.6-.51-1.28-.78-1.95-.78-.14,0-.28.01-.41.03h-.01s-.07.02-.11.02c-.55.12-1.24.46-1.8,1.34-.81-1.16-2.04-2.14-3.4-2.14h0Z"/>
      <path class="cls-2" d="M199.81,33.8c.25-1.7-.41-3.62-1.7-4.5-1.11-.75-1.72-.08-2.82-.91-1.2-.9-.82-1.94-2.07-2.85-1.1-.8-2.36-.7-2.69-.67-.49.04-1.69.24-2.59,1.2-1.13,1.21-.41,2.16-1.6,3.95-.85,1.28-1.23,1.08-1.83,2.27-.19.38-1.12,2.21-.36,4.23.05.14.9,2.3,2.8,2.74,1.06.25,2.07-.13,3.24-.57,1.03-.39,1.12-.62,2-.84,1-.25,1.33-.06,2.59-.14,1.33-.09,2.28-.16,3.15-.73,1.54-1.01,1.85-2.95,1.88-3.19h0Z"/>
      <path class="cls-2" d="M187.82,17.11c-.88.28-1.18,2.09-.9,3.39.32,1.49,1.57,3.08,2.53,2.86.92-.21,1.44-2.07,1.12-3.5-.35-1.57-1.81-3.05-2.75-2.75h0Z"/>
      <path class="cls-2" d="M193.65,23.85c.59.18,1.18-.28,1.31-.38.93-.71.89-2.04.88-2.35-.05-1.66-1.26-3.44-2.14-3.3-.8.13-1.15,1.86-1.21,2.75-.07,1.1.16,2.98,1.15,3.28h0Z"/>
      <path class="cls-2" d="M198.28,21.63c-1.04.21-1.97,3.53-.63,4.9.35.35.98.72,1.51.52,1.03-.38,1.46-2.81.51-4.34-.1-.16-.75-1.21-1.39-1.08h0Z"/>
      <path class="cls-2" d="M182.9,24.59c.14.28.74,1.45,1.88,1.61.15.02.89.12,1.32-.33.73-.76.04-2.52-.54-3.44-.47-.74-1.6-2.08-2.36-1.8-.83.31-1.05,2.48-.3,3.95h0Z"/>
      <path class="cls-2" d="M181.02,26.26c-.62.21-.69,1.45-.7,1.64-.1,1.82,1.42,3.73,2.5,3.54.55-.1.94-.73,1.07-1.22.52-1.86-1.86-4.3-2.87-3.96Z"/>
      <path class="cls-3" d="M172.13,34.8l-.97-4.72c-.19-.94-1.26-1.38-2.03-.84l-5.03,3.56c-.96.68-.65,2.22.5,2.44l5.99,1.16c.92.18,1.72-.66,1.53-1.61h0Z"/>
      <path class="cls-3" d="M216.69,21.37l-5.99-1.16c-.92-.18-1.72.66-1.53,1.61l.97,4.72c.19.94,1.26,1.38,2.03.84l5.03-3.56c.96-.68.65-2.22-.5-2.44h0Z"/>
      <path class="cls-3" d="M196.96,47.38l-4.59,1c-.92.2-1.34,1.3-.81,2.09l3.46,5.18c.66.99,2.16.67,2.37-.52l1.13-6.17c.17-.95-.64-1.77-1.56-1.57h0Z"/>
      <path class="cls-3" d="M183.64,5.91l-.31-1.36.13-.03,1.12,1.18,3.54,3.62,2.06-.45-1.82-8.88-1.93.42.91,4.45.27,1.19-.13.03-.96-1.04-3.71-3.84-2.06.45,1.82,8.88,1.93-.42-.86-4.2Z"/>
      <path class="cls-3" d="M168.85,24.82c.69-2.48,1.59-4.86,2.8-7.1.78.43,1.6.77,2.48.98.21.05.44,0,.63-.14.36-.27.44-.78.18-1.15-.42-.6-.91-1.09-1.42-1.56-.16-.14-.33-.28-.5-.42,1.56-2.33,3.47-4.37,5.6-6.2.32-.27.43-.75.23-1.14-.22-.46-.77-.65-1.22-.42-2.73,1.45-5.1,3.62-6.9,6.21-.2-.11-.39-.21-.59-.31-.62-.29-1.25-.56-1.96-.7-.21-.04-.43,0-.62.13-.36.26-.45.78-.19,1.15.57.8,1.24,1.45,1.98,2.03-1.34,2.57-2.16,5.43-2.29,8.33-.02,1.1,1.48,1.35,1.79.29h0Z"/>
      <path class="cls-3" d="M194.04,5.85c2.41.71,4.72,1.64,6.89,2.89-.41.8-.75,1.64-.95,2.56-.04.22,0,.46.13.65.26.37.76.45,1.11.18.58-.44,1.06-.94,1.51-1.47.14-.17.27-.34.41-.51,2.26,1.61,4.25,3.57,6.02,5.77.26.33.72.44,1.11.24.45-.23.63-.8.41-1.26-1.41-2.81-3.52-5.25-6.03-7.11.1-.2.21-.4.3-.61.29-.63.54-1.29.68-2.02.04-.21,0-.45-.13-.64-.26-.37-.76-.46-1.12-.2-.78.58-1.41,1.28-1.97,2.03-2.5-1.38-5.27-2.22-8.09-2.35-1.07-.02-1.31,1.52-.28,1.84h0Z"/>
      <path class="cls-3" d="M212.46,31.79c-.69,2.48-1.59,4.86-2.8,7.1-.78-.43-1.6-.77-2.48-.98-.21-.05-.44,0-.63.14-.36.27-.44.78-.18,1.15.42.6.91,1.09,1.42,1.56.16.14.33.28.5.42-1.56,2.33-3.47,4.37-5.6,6.2-.32.27-.43.75-.24,1.14.22.46.77.65,1.22.42,2.73-1.45,5.1-3.62,6.9-6.21.2.11.39.21.59.31.62.29,1.25.56,1.96.7.21.04.43,0,.62-.13.36-.26.45-.78.19-1.15-.57-.8-1.24-1.45-1.98-2.03,1.34-2.57,2.16-5.43,2.29-8.33.02-1.1-1.48-1.35-1.79-.29h0Z"/>
      <path class="cls-3" d="M187.27,50.76c-2.41-.71-4.72-1.64-6.89-2.89.41-.8.75-1.64.95-2.56.05-.22,0-.46-.13-.65-.26-.37-.76-.45-1.11-.18-.58.44-1.06.94-1.51,1.47-.14.17-.27.34-.41.51-2.26-1.61-4.25-3.57-6.02-5.77-.26-.33-.72-.44-1.11-.24-.45.23-.63.8-.41,1.26,1.41,2.81,3.52,5.25,6.03,7.11-.1.2-.21.4-.3.61-.29.63-.54,1.29-.68,2.02-.04.21,0,.45.13.64.25.37.76.46,1.12.2.77-.58,1.41-1.28,1.97-2.03,2.5,1.38,5.27,2.22,8.09,2.35,1.07.02,1.31-1.52.28-1.84h0Z"/>
    </g>
  </g>
</svg>